<svg xmlns="http://www.w3.org/2000/svg" xmlns:xlink="http://www.w3.org/1999/xlink" width="500" zoomAndPan="magnify" viewBox="0 0 375 374.999991" height="500" preserveAspectRatio="xMidYMid meet" version="1.0"><path fill="#000000" d="M 360.136719 104.128906 L 360.136719 297.269531 C 360.136719 303.988281 355.039062 309.433594 348.75 309.433594 C 342.460938 309.433594 337.363281 303.988281 337.363281 297.269531 L 337.363281 138.960938 C 332.359375 146.164062 327.359375 153.371094 322.355469 160.574219 L 322.355469 287.488281 C 322.355469 294.496094 317.253906 300.171875 310.96875 300.171875 C 304.675781 300.171875 299.578125 294.496094 299.578125 287.488281 L 299.578125 122.457031 C 294.570312 129.976562 289.5625 137.496094 284.554688 145.015625 L 284.554688 276.5625 C 284.554688 283.863281 279.457031 289.78125 273.167969 289.78125 C 266.878906 289.78125 261.78125 283.863281 261.78125 276.5625 L 261.78125 104.492188 C 241.925781 135.546875 222.070312 166.605469 202.210938 197.660156 C 197.703125 204.714844 193.191406 211.773438 188.679688 218.828125 C 184.164062 211.773438 179.652344 204.714844 175.144531 197.660156 C 155.292969 166.609375 135.4375 135.554688 115.589844 104.511719 L 115.589844 276.582031 C 115.589844 283.875 110.488281 289.796875 104.203125 289.796875 C 97.910156 289.796875 92.8125 283.875 92.8125 276.582031 L 92.8125 145.03125 C 87.804688 137.507812 82.796875 129.992188 77.789062 122.46875 L 77.789062 287.488281 C 77.789062 294.496094 72.691406 300.171875 66.402344 300.171875 C 60.113281 300.171875 55.015625 294.496094 55.015625 287.488281 L 55.015625 160.582031 C 50.011719 153.382812 45.011719 146.175781 40.007812 138.976562 L 40.007812 297.269531 C 40.007812 303.988281 34.90625 309.433594 28.617188 309.433594 C 22.328125 309.433594 17.230469 303.988281 17.230469 297.269531 L 17.230469 104.148438 C 17.230469 100.121094 19.066406 96.554688 21.890625 94.339844 C 22.011719 94.242188 22.136719 94.148438 22.25 94.0625 C 22.359375 93.988281 22.46875 93.914062 22.574219 93.839844 C 23.550781 93.214844 26.78125 91.449219 31.320312 93.011719 C 35.082031 94.3125 37.640625 97.175781 38.765625 98.625 C 38.980469 98.898438 39.136719 99.128906 39.246094 99.28125 C 43.992188 106.019531 49.308594 113.59375 55.015625 121.742188 L 55.015625 86.140625 C 55.015625 82.003906 56.796875 78.328125 59.554688 76.019531 C 59.582031 75.984375 59.613281 75.964844 59.644531 75.941406 C 59.777344 75.832031 59.90625 75.730469 60.035156 75.632812 C 60.042969 75.628906 60.054688 75.613281 60.0625 75.609375 C 60.117188 75.574219 60.175781 75.527344 60.234375 75.484375 C 60.242188 75.476562 60.253906 75.472656 60.265625 75.464844 C 60.292969 75.441406 60.320312 75.421875 60.347656 75.40625 C 60.351562 75.40625 60.355469 75.402344 60.359375 75.402344 C 60.394531 75.375 60.429688 75.351562 60.464844 75.332031 C 60.503906 75.300781 60.546875 75.277344 60.585938 75.257812 C 60.589844 75.253906 60.59375 75.253906 60.59375 75.246094 C 60.742188 75.183594 62.300781 74.28125 64.09375 73.980469 C 64.210938 73.964844 64.328125 73.949219 64.453125 73.929688 C 64.542969 73.921875 64.640625 73.914062 64.734375 73.910156 C 64.828125 73.898438 64.929688 73.894531 65.027344 73.894531 C 65.386719 73.875 65.757812 73.882812 66.148438 73.902344 C 66.265625 73.914062 66.386719 73.921875 66.511719 73.9375 C 66.621094 73.949219 66.730469 73.964844 66.835938 73.976562 C 67.046875 74.003906 67.265625 74.042969 67.492188 74.09375 C 68.855469 74.382812 69.871094 74.910156 70.546875 75.265625 C 72.085938 76.074219 73.097656 76.980469 74.113281 77.890625 C 75.179688 78.84375 76 79.75 76.570312 80.425781 C 76.785156 80.714844 76.949219 80.949219 77.058594 81.117188 C 81.800781 88.140625 87.109375 96.027344 92.8125 104.523438 L 92.8125 66.675781 C 92.8125 62.367188 94.59375 58.542969 97.34375 56.128906 C 97.4375 56.046875 97.523438 55.972656 97.609375 55.898438 C 97.765625 55.765625 97.933594 55.636719 98.097656 55.515625 C 98.140625 55.484375 98.183594 55.457031 98.226562 55.429688 C 98.265625 55.402344 98.308594 55.371094 98.351562 55.34375 C 98.367188 55.335938 98.378906 55.328125 98.394531 55.3125 C 98.425781 55.292969 98.460938 55.277344 98.496094 55.25 C 98.613281 55.175781 98.75 55.09375 98.898438 55.011719 C 98.902344 55.007812 98.910156 55.003906 98.917969 55 C 98.980469 54.964844 99.050781 54.929688 99.121094 54.894531 C 99.140625 54.882812 99.15625 54.875 99.175781 54.863281 C 99.238281 54.832031 99.300781 54.800781 99.367188 54.773438 C 99.492188 54.710938 99.625 54.652344 99.761719 54.59375 C 100.003906 54.492188 100.269531 54.394531 100.550781 54.296875 C 100.640625 54.273438 100.730469 54.246094 100.828125 54.222656 C 100.84375 54.214844 100.867188 54.207031 100.886719 54.203125 C 100.996094 54.171875 101.113281 54.144531 101.226562 54.117188 C 101.371094 54.082031 101.523438 54.050781 101.679688 54.023438 C 101.789062 54 101.902344 53.984375 102.015625 53.96875 C 102.113281 53.953125 102.210938 53.945312 102.3125 53.933594 C 102.367188 53.921875 102.417969 53.917969 102.472656 53.914062 C 102.597656 53.902344 102.726562 53.894531 102.855469 53.890625 C 103 53.882812 103.148438 53.875 103.300781 53.875 C 104.371094 53.875 105.574219 54.0625 106.890625 54.550781 C 110.683594 55.964844 113.238281 59.101562 114.34375 60.65625 C 114.34375 60.660156 114.347656 60.667969 114.347656 60.667969 C 114.539062 60.933594 114.683594 61.160156 114.785156 61.3125 C 133.945312 90.878906 162.417969 135.199219 188.679688 176.402344 C 214.945312 135.191406 243.421875 90.867188 262.582031 61.300781 C 262.683594 61.140625 262.832031 60.921875 263.019531 60.648438 C 263.019531 60.648438 263.023438 60.644531 263.023438 60.640625 C 264.128906 59.085938 266.683594 55.945312 270.480469 54.535156 C 271.792969 54.046875 272.996094 53.863281 274.070312 53.863281 C 274.222656 53.863281 274.367188 53.867188 274.511719 53.875 C 274.644531 53.875 274.769531 53.886719 274.894531 53.898438 C 274.949219 53.902344 275 53.910156 275.054688 53.914062 C 275.15625 53.925781 275.253906 53.941406 275.351562 53.949219 C 275.464844 53.96875 275.578125 53.984375 275.6875 54.011719 C 275.84375 54.035156 275.996094 54.066406 276.140625 54.097656 C 276.257812 54.125 276.375 54.152344 276.480469 54.1875 C 276.503906 54.191406 276.523438 54.195312 276.542969 54.203125 C 276.636719 54.226562 276.726562 54.257812 276.816406 54.28125 C 277.101562 54.375 277.363281 54.472656 277.605469 54.574219 C 277.746094 54.636719 277.875 54.695312 278 54.753906 C 278.066406 54.785156 278.132812 54.816406 278.195312 54.851562 C 278.210938 54.855469 278.230469 54.863281 278.246094 54.878906 C 278.316406 54.914062 278.386719 54.953125 278.453125 54.984375 C 278.457031 54.988281 278.464844 54.992188 278.46875 54.996094 C 278.621094 55.078125 278.757812 55.160156 278.875 55.234375 C 278.910156 55.257812 278.945312 55.277344 278.976562 55.300781 C 278.988281 55.3125 279.003906 55.316406 279.015625 55.328125 L 279.144531 55.414062 C 279.1875 55.441406 279.226562 55.464844 279.269531 55.496094 C 279.4375 55.621094 279.601562 55.746094 279.757812 55.882812 C 279.84375 55.953125 279.933594 56.035156 280.023438 56.117188 C 282.777344 58.527344 284.554688 62.351562 284.554688 66.660156 L 284.554688 104.511719 C 290.257812 96.019531 295.566406 88.128906 300.308594 81.097656 C 300.417969 80.933594 300.582031 80.699219 300.796875 80.40625 C 301.371094 79.730469 302.191406 78.832031 303.257812 77.875 C 304.273438 76.960938 305.28125 76.058594 306.820312 75.246094 C 307.496094 74.890625 308.511719 74.359375 309.878906 74.074219 C 310.101562 74.027344 310.320312 73.984375 310.53125 73.960938 C 310.636719 73.945312 310.746094 73.929688 310.859375 73.921875 C 310.980469 73.902344 311.101562 73.898438 311.21875 73.886719 C 311.609375 73.863281 311.984375 73.859375 312.34375 73.871094 C 312.441406 73.875 312.539062 73.882812 312.632812 73.894531 C 312.730469 73.898438 312.824219 73.902344 312.914062 73.917969 C 313.039062 73.929688 313.160156 73.945312 313.273438 73.964844 C 315.074219 74.269531 316.636719 75.175781 316.773438 75.230469 C 316.777344 75.230469 316.78125 75.230469 316.785156 75.234375 C 316.824219 75.261719 316.863281 75.285156 316.902344 75.308594 C 316.9375 75.335938 316.972656 75.355469 317.007812 75.382812 C 317.011719 75.382812 317.015625 75.386719 317.019531 75.390625 C 317.046875 75.40625 317.074219 75.421875 317.105469 75.445312 C 317.113281 75.457031 317.125 75.460938 317.136719 75.46875 C 317.191406 75.507812 317.25 75.550781 317.308594 75.589844 C 317.316406 75.597656 317.324219 75.609375 317.332031 75.613281 C 317.460938 75.714844 317.59375 75.816406 317.722656 75.921875 C 317.753906 75.945312 317.785156 75.964844 317.8125 76 C 320.570312 78.3125 322.355469 81.988281 322.355469 86.125 L 322.355469 121.730469 C 328.0625 113.578125 333.378906 106.011719 338.121094 99.265625 C 338.230469 99.109375 338.386719 98.890625 338.601562 98.613281 C 339.726562 97.160156 342.285156 94.296875 346.046875 93 C 350.585938 91.429688 353.820312 93.195312 354.792969 93.820312 C 354.902344 93.894531 355.011719 93.96875 355.121094 94.050781 C 355.230469 94.128906 355.355469 94.230469 355.476562 94.324219 C 358.300781 96.539062 360.136719 100.105469 360.136719 104.128906 Z M 360.136719 104.128906 " fill-opacity="1" fill-rule="nonzero"/><path fill="#000000" d="M 188.050781 281.316406 L 43.449219 313.296875 C 40.023438 314.058594 40.574219 319.097656 44.082031 319.097656 L 333.285156 319.097656 C 336.796875 319.097656 337.347656 314.058594 333.917969 313.296875 L 189.316406 281.316406 C 188.902344 281.21875 188.46875 281.21875 188.050781 281.316406 Z M 188.050781 281.316406 " fill-opacity="1" fill-rule="nonzero"/></svg>