<svg xmlns="http://www.w3.org/2000/svg" xmlns:xlink="http://www.w3.org/1999/xlink" width="500" zoomAndPan="magnify" viewBox="0 0 375 374.999991" height="500" preserveAspectRatio="xMidYMid meet" version="1.0"><path fill="#289dd2" d="M 368.113281 99.644531 L 368.113281 302.992188 C 368.113281 310.066406 362.746094 315.796875 356.128906 315.796875 C 349.511719 315.796875 344.144531 310.066406 344.144531 302.992188 L 344.144531 136.316406 C 338.878906 143.898438 333.617188 151.484375 328.351562 159.066406 L 328.351562 292.695312 C 328.351562 300.070312 322.984375 306.046875 316.367188 306.046875 C 309.746094 306.046875 304.382812 300.070312 304.382812 292.695312 L 304.382812 118.9375 C 299.113281 126.855469 293.84375 134.773438 288.574219 142.691406 L 288.574219 281.1875 C 288.574219 288.875 283.207031 295.105469 276.585938 295.105469 C 269.96875 295.105469 264.605469 288.875 264.605469 281.1875 L 264.605469 100.019531 C 243.710938 132.71875 222.8125 165.417969 201.917969 198.117188 C 197.171875 205.542969 192.425781 212.972656 187.675781 220.398438 C 182.925781 212.972656 178.175781 205.542969 173.433594 198.117188 C 152.539062 165.421875 131.648438 132.726562 110.757812 100.039062 L 110.757812 281.207031 C 110.757812 288.890625 105.390625 295.121094 98.773438 295.121094 C 92.152344 295.121094 86.789062 288.890625 86.789062 281.207031 L 86.789062 142.703125 C 81.519531 134.785156 76.25 126.871094 70.980469 118.953125 L 70.980469 292.695312 C 70.980469 300.074219 65.613281 306.046875 58.992188 306.046875 C 52.375 306.046875 47.011719 300.074219 47.011719 292.695312 L 47.011719 159.082031 C 41.746094 151.5 36.484375 143.914062 31.21875 136.328125 L 31.21875 302.992188 C 31.21875 310.066406 25.851562 315.796875 19.230469 315.796875 C 12.613281 315.796875 7.25 310.066406 7.25 302.992188 L 7.25 99.660156 C 7.25 95.417969 9.179688 91.667969 12.152344 89.335938 C 12.28125 89.230469 12.410156 89.132812 12.527344 89.039062 C 12.644531 88.964844 12.757812 88.886719 12.875 88.808594 C 13.898438 88.148438 17.300781 86.289062 22.078125 87.933594 C 26.035156 89.308594 28.726562 92.316406 29.910156 93.847656 C 30.136719 94.136719 30.304688 94.378906 30.417969 94.535156 C 35.410156 101.632812 41.003906 109.601562 47.011719 118.1875 L 47.011719 80.703125 C 47.011719 76.34375 48.886719 72.472656 51.789062 70.042969 C 51.816406 70.007812 51.851562 69.984375 51.882812 69.960938 C 52.019531 69.851562 52.160156 69.738281 52.296875 69.636719 C 52.300781 69.632812 52.3125 69.621094 52.320312 69.613281 C 52.378906 69.570312 52.441406 69.527344 52.503906 69.480469 C 52.511719 69.472656 52.523438 69.46875 52.535156 69.460938 C 52.566406 69.4375 52.59375 69.414062 52.625 69.398438 C 52.628906 69.394531 52.632812 69.390625 52.636719 69.390625 C 52.671875 69.367188 52.710938 69.339844 52.746094 69.316406 C 52.789062 69.289062 52.832031 69.261719 52.871094 69.238281 C 52.875 69.234375 52.878906 69.234375 52.882812 69.226562 C 53.039062 69.160156 54.679688 68.21875 56.566406 67.898438 C 56.6875 67.878906 56.8125 67.863281 56.941406 67.847656 C 57.039062 67.835938 57.140625 67.828125 57.238281 67.824219 C 57.339844 67.8125 57.441406 67.808594 57.546875 67.804688 C 57.925781 67.785156 58.316406 67.792969 58.726562 67.816406 C 58.851562 67.828125 58.980469 67.835938 59.109375 67.851562 C 59.226562 67.863281 59.339844 67.878906 59.453125 67.894531 C 59.675781 67.925781 59.902344 67.960938 60.140625 68.015625 C 61.578125 68.320312 62.644531 68.875 63.355469 69.25 C 64.976562 70.105469 66.039062 71.054688 67.109375 72.011719 C 68.230469 73.019531 69.097656 73.972656 69.695312 74.683594 C 69.921875 74.984375 70.09375 75.234375 70.210938 75.40625 C 75.199219 82.808594 80.785156 91.113281 86.789062 100.054688 L 86.789062 60.207031 C 86.789062 55.667969 88.660156 51.644531 91.558594 49.101562 C 91.65625 49.015625 91.746094 48.933594 91.835938 48.855469 C 92.003906 48.714844 92.175781 48.582031 92.351562 48.453125 C 92.394531 48.417969 92.4375 48.394531 92.484375 48.363281 C 92.527344 48.335938 92.574219 48.300781 92.617188 48.273438 C 92.632812 48.265625 92.644531 48.257812 92.660156 48.242188 C 92.695312 48.21875 92.730469 48.203125 92.769531 48.175781 C 92.890625 48.097656 93.035156 48.007812 93.195312 47.925781 C 93.199219 47.921875 93.207031 47.917969 93.210938 47.914062 C 93.277344 47.875 93.351562 47.839844 93.425781 47.800781 C 93.445312 47.785156 93.464844 47.78125 93.484375 47.769531 C 93.550781 47.734375 93.617188 47.703125 93.6875 47.671875 C 93.820312 47.605469 93.957031 47.546875 94.101562 47.484375 C 94.355469 47.375 94.632812 47.273438 94.933594 47.171875 C 95.027344 47.148438 95.121094 47.117188 95.222656 47.089844 C 95.242188 47.082031 95.261719 47.078125 95.285156 47.074219 C 95.398438 47.039062 95.523438 47.011719 95.644531 46.980469 C 95.796875 46.941406 95.953125 46.910156 96.121094 46.882812 C 96.234375 46.859375 96.355469 46.84375 96.472656 46.824219 C 96.578125 46.808594 96.679688 46.800781 96.789062 46.789062 C 96.84375 46.777344 96.898438 46.773438 96.953125 46.769531 C 97.085938 46.753906 97.21875 46.746094 97.355469 46.742188 C 97.507812 46.734375 97.664062 46.730469 97.824219 46.730469 C 98.953125 46.730469 100.21875 46.925781 101.601562 47.4375 C 105.59375 48.925781 108.285156 52.230469 109.445312 53.867188 C 109.445312 53.871094 109.449219 53.878906 109.449219 53.878906 C 109.652344 54.160156 109.804688 54.394531 109.914062 54.558594 C 130.074219 85.6875 160.039062 132.351562 187.675781 175.734375 C 215.316406 132.34375 245.285156 85.675781 265.449219 54.542969 C 265.554688 54.378906 265.710938 54.144531 265.910156 53.859375 C 265.910156 53.859375 265.914062 53.855469 265.914062 53.851562 C 267.078125 52.210938 269.765625 48.90625 273.761719 47.421875 C 275.144531 46.90625 276.410156 46.714844 277.539062 46.714844 C 277.695312 46.714844 277.851562 46.71875 278.003906 46.726562 C 278.140625 46.730469 278.273438 46.738281 278.40625 46.75 C 278.464844 46.753906 278.519531 46.761719 278.574219 46.769531 C 278.679688 46.78125 278.785156 46.796875 278.890625 46.804688 C 279.007812 46.824219 279.125 46.84375 279.242188 46.871094 C 279.40625 46.894531 279.566406 46.929688 279.71875 46.960938 C 279.839844 46.992188 279.960938 47.019531 280.078125 47.058594 C 280.097656 47.0625 280.121094 47.066406 280.140625 47.074219 C 280.238281 47.097656 280.335938 47.128906 280.429688 47.152344 C 280.726562 47.253906 281.003906 47.359375 281.261719 47.464844 C 281.40625 47.527344 281.542969 47.589844 281.675781 47.652344 C 281.746094 47.683594 281.8125 47.714844 281.878906 47.753906 C 281.898438 47.761719 281.914062 47.769531 281.933594 47.785156 C 282.007812 47.820312 282.082031 47.859375 282.148438 47.894531 C 282.15625 47.898438 282.164062 47.902344 282.167969 47.910156 C 282.328125 47.996094 282.472656 48.078125 282.59375 48.15625 C 282.628906 48.183594 282.667969 48.207031 282.699219 48.226562 C 282.714844 48.238281 282.730469 48.246094 282.746094 48.257812 L 282.878906 48.347656 C 282.921875 48.375 282.96875 48.402344 283.011719 48.433594 C 283.183594 48.5625 283.359375 48.695312 283.527344 48.839844 C 283.613281 48.914062 283.707031 49 283.804688 49.085938 C 286.699219 51.625 288.574219 55.652344 288.574219 60.1875 L 288.574219 100.042969 C 294.574219 91.097656 300.160156 82.789062 305.152344 75.394531 C 305.265625 75.214844 305.441406 74.96875 305.667969 74.664062 C 306.269531 73.953125 307.132812 73.003906 308.257812 72 C 309.324219 71.039062 310.382812 70.085938 312.003906 69.226562 C 312.714844 68.859375 313.785156 68.300781 315.222656 67.996094 C 315.457031 67.945312 315.6875 67.902344 315.910156 67.878906 C 316.019531 67.859375 316.136719 67.839844 316.253906 67.832031 C 316.382812 67.816406 316.507812 67.8125 316.632812 67.800781 C 317.042969 67.769531 317.4375 67.765625 317.816406 67.78125 C 317.917969 67.785156 318.023438 67.796875 318.121094 67.808594 C 318.222656 67.8125 318.320312 67.816406 318.417969 67.828125 C 318.546875 67.839844 318.671875 67.859375 318.796875 67.882812 C 320.691406 68.203125 322.332031 69.152344 322.476562 69.214844 C 322.480469 69.214844 322.484375 69.214844 322.488281 69.21875 C 322.53125 69.246094 322.574219 69.273438 322.613281 69.292969 C 322.652344 69.320312 322.6875 69.347656 322.726562 69.371094 C 322.730469 69.371094 322.734375 69.375 322.738281 69.378906 C 322.765625 69.394531 322.796875 69.417969 322.824219 69.441406 C 322.835938 69.449219 322.847656 69.453125 322.859375 69.460938 C 322.917969 69.507812 322.980469 69.550781 323.039062 69.59375 C 323.046875 69.601562 323.058594 69.609375 323.066406 69.613281 C 323.203125 69.71875 323.339844 69.832031 323.476562 69.9375 C 323.511719 69.964844 323.542969 69.992188 323.574219 70.023438 C 326.472656 72.453125 328.351562 76.324219 328.351562 80.679688 L 328.351562 118.171875 C 334.355469 109.589844 339.953125 101.621094 344.945312 94.519531 C 345.058594 94.359375 345.226562 94.121094 345.449219 93.832031 C 346.636719 92.304688 349.324219 89.289062 353.285156 87.921875 C 358.0625 86.269531 361.464844 88.128906 362.488281 88.789062 C 362.601562 88.867188 362.71875 88.945312 362.832031 89.03125 C 362.949219 89.113281 363.082031 89.214844 363.210938 89.320312 C 366.179688 91.648438 368.113281 95.402344 368.113281 99.644531 Z M 368.113281 99.644531 " fill-opacity="1" fill-rule="nonzero"/><path fill="#289dd2" d="M 187.015625 286.203125 L 34.839844 319.878906 C 31.234375 320.679688 31.8125 325.984375 35.507812 325.984375 L 339.855469 325.984375 C 343.550781 325.984375 344.128906 320.679688 340.523438 319.878906 L 188.347656 286.203125 C 187.910156 286.109375 187.453125 286.109375 187.015625 286.203125 Z M 187.015625 286.203125 " fill-opacity="1" fill-rule="nonzero"/></svg>